<svg width="61" height="42" viewBox="0 0 61 42" fill="none" xmlns="http://www.w3.org/2000/svg">
<g id="CRM 1" clip-path="url(#clip0_44_2478)">
<g id="Layer">
<path id="Layer_2" fill-rule="evenodd" clip-rule="evenodd" d="M25.5665 4.66593C27.4862 2.67845 30.1609 1.4445 33.1174 1.4445C37.0479 1.4445 40.4778 3.6228 42.3038 6.85659C42.711 6.67587 43.1273 6.51686 43.551 6.37954C43.9752 6.24223 44.4057 6.12737 44.8419 6.03533C45.278 5.94328 45.7187 5.87407 46.1621 5.82805C46.6054 5.78202 47.051 5.7592 47.4966 5.75958C54.586 5.75958 60.3323 11.5207 60.3323 18.6285C60.3323 25.7362 54.586 31.4974 47.4966 31.4974C46.6298 31.4974 45.7846 31.4113 44.9672 31.2475C43.3595 34.097 40.2934 36.0231 36.7762 36.0231C35.3039 36.0231 33.9107 35.6864 32.6714 35.084C31.0408 38.8959 27.242 41.5673 22.8159 41.5673C18.2065 41.5673 14.2767 38.668 12.7691 34.6032C12.6013 34.6384 12.4327 34.6691 12.2633 34.6956C12.094 34.7222 11.9239 34.7443 11.7534 34.7619C11.5829 34.7794 11.4117 34.7929 11.2404 34.8015C11.0692 34.8105 10.898 34.815 10.7264 34.8146C5.23709 34.8154 0.787255 30.3473 0.787255 24.8356C0.785373 23.9657 0.897522 23.0996 1.12107 22.2589C1.34461 21.4182 1.67767 20.61 2.11159 19.8546C2.54589 19.0995 3.07728 18.404 3.69259 17.7855C4.3079 17.1671 5.00187 16.6313 5.75681 16.1913C5.59988 15.8325 5.46176 15.4658 5.34321 15.0928C5.22429 14.7197 5.12456 14.3411 5.04478 13.958C4.96499 13.5748 4.90515 13.1876 4.86526 12.7985C4.82537 12.4094 4.80542 12.018 4.80618 11.627C4.80618 5.2874 9.98385 0.148813 16.3711 0.148813C17.2577 0.147691 18.1417 0.248337 19.0054 0.448133C19.8688 0.648304 20.7065 0.946502 21.5013 1.33712C22.2961 1.72735 23.0432 2.20776 23.7274 2.76787C24.4119 3.32835 25.0287 3.96515 25.5665 4.66593Z" fill="#00A1E0"/>
<path id="Layer_3" fill-rule="evenodd" clip-rule="evenodd" d="M9.41222 21.628L9.65308 20.9635C9.69146 20.8498 9.77802 20.8872 9.8134 20.9085C9.88038 20.9478 9.92856 20.9837 10.0151 21.0339C10.7249 21.4798 11.3827 21.4843 11.5878 21.4843C12.1192 21.4843 12.4489 21.2048 12.4489 20.8277V20.8082C12.4489 20.3978 11.9408 20.2425 11.3541 20.0641L11.2239 20.0225C10.4182 19.7947 9.55673 19.4654 9.55673 18.4518V18.4313C9.55673 17.4693 10.3376 16.7985 11.455 16.7985L11.5777 16.797C12.234 16.797 12.8681 16.9867 13.328 17.2635C13.3698 17.2897 13.4101 17.3373 13.3867 17.4009L13.1391 18.0653C13.0954 18.1787 12.9765 18.1035 12.9765 18.1035C12.8568 18.0418 12.7342 17.9868 12.6081 17.9389C12.4824 17.891 12.3541 17.8506 12.2235 17.8173C12.0933 17.784 11.9608 17.7582 11.8276 17.7398C11.694 17.7219 11.5596 17.711 11.4253 17.7084C10.9511 17.7084 10.6462 17.958 10.6462 18.2973V18.3187C10.6462 18.7141 11.1686 18.8829 11.7741 19.0789L11.8784 19.1115C12.6815 19.3637 13.5384 19.7131 13.5384 20.6743V20.6941C13.5384 21.7331 12.7789 22.3782 11.5581 22.3782C10.9582 22.3782 10.3843 22.2861 9.77764 21.9659C9.66286 21.9 9.54958 21.8431 9.43743 21.762C9.42577 21.7451 9.37459 21.7253 9.41147 21.628H9.41222ZM27.5344 20.9635C27.5698 20.8546 27.6722 20.8951 27.694 20.9085C27.7606 20.9493 27.8099 20.9837 27.8961 21.0339C28.607 21.4798 29.2637 21.4843 29.4707 21.4843C30.0002 21.4843 30.3303 21.2048 30.3303 20.8277V20.8082C30.3303 20.3978 29.823 20.2425 29.2362 20.0641L29.106 20.0225C28.2992 19.7947 27.4377 19.4654 27.4377 18.4518V18.4313C27.4377 17.4693 28.219 16.7985 29.3367 16.7985L29.4583 16.797C30.1146 16.797 30.7499 16.9867 31.2101 17.2635C31.2504 17.2897 31.2914 17.3373 31.2688 17.4009C31.2459 17.4596 31.0427 18.0032 31.0212 18.0653C30.9764 18.1787 30.8586 18.1035 30.8586 18.1035C30.739 18.0418 30.6159 17.9868 30.4902 17.9389C30.3645 17.891 30.2358 17.8506 30.1056 17.8173C29.975 17.784 29.8425 17.7582 29.7093 17.7398C29.5757 17.7219 29.4413 17.711 29.3066 17.7084C28.8324 17.7084 28.5276 17.958 28.5276 18.2973V18.3187C28.5276 18.7141 29.0492 18.8829 29.6555 19.0789L29.7597 19.1115C30.5628 19.3637 31.419 19.7131 31.419 20.6743V20.6941C31.419 21.7331 30.6607 22.3782 29.4395 22.3782C28.8388 22.3782 28.2653 22.2861 27.659 21.9659C27.5442 21.9 27.4309 21.8431 27.3184 21.762C27.3068 21.7451 27.2552 21.7253 27.2928 21.628L27.5344 20.9635ZM40.5196 18.5031C40.6197 18.8368 40.6694 19.2039 40.6694 19.5915C40.6694 19.9799 40.6197 20.3454 40.5196 20.6795C40.4967 20.7596 40.4696 20.8386 40.4387 20.916C40.4075 20.9935 40.3729 21.0694 40.3337 21.1435C40.295 21.2172 40.2524 21.2894 40.2061 21.359C40.1599 21.4286 40.1102 21.4956 40.0571 21.5603C40.004 21.6228 39.9472 21.6823 39.8874 21.7388C39.8272 21.7949 39.7643 21.848 39.6985 21.8974C39.6322 21.9464 39.5637 21.9921 39.4926 22.0336C39.4215 22.0755 39.3485 22.1129 39.2732 22.1466C38.9605 22.2888 38.5932 22.3602 38.1803 22.3602C37.7675 22.3602 37.3987 22.2888 37.0874 22.1466C37.0122 22.1129 36.9388 22.0755 36.8676 22.0336C36.7969 21.9921 36.728 21.9464 36.6622 21.8974C36.5963 21.848 36.5331 21.7949 36.4732 21.7388C36.4134 21.6823 36.3566 21.6228 36.3035 21.5603C36.2504 21.4956 36.2004 21.4286 36.1545 21.359C36.1082 21.2894 36.0657 21.2176 36.0265 21.1435C35.9878 21.0698 35.9528 20.9938 35.9215 20.9164C35.8907 20.8393 35.8636 20.7604 35.8402 20.6799C35.8146 20.5916 35.7924 20.5026 35.7732 20.4128C35.7544 20.3226 35.7386 20.2321 35.7258 20.1411C35.7134 20.0502 35.7044 19.9586 35.6984 19.8669C35.6923 19.7752 35.6897 19.6836 35.6905 19.5915C35.6905 19.2031 35.7409 18.8368 35.8402 18.5031C35.9407 18.1664 36.0961 17.87 36.3028 17.6227C36.3562 17.5599 36.413 17.5 36.4729 17.4435C36.5331 17.3866 36.5959 17.3335 36.6622 17.2837C36.728 17.234 36.7965 17.188 36.8676 17.1457C36.9388 17.1038 37.0122 17.0652 37.0874 17.0312C37.3994 16.8864 37.766 16.8131 38.1803 16.8131C38.5943 16.8131 38.9612 16.8864 39.2732 17.0312C39.5844 17.1756 39.8486 17.3743 40.0571 17.6227C40.2641 17.87 40.4207 18.1664 40.5196 18.5031ZM39.1738 18.2195C38.959 17.8985 38.6334 17.7432 38.1803 17.7432C37.7268 17.7432 37.4039 17.8985 37.1917 18.2195C36.9787 18.5431 36.8699 19.0045 36.8699 19.5915C36.8699 20.1778 36.9787 20.6425 37.1928 20.9688C37.4039 21.2935 37.7268 21.4507 38.1803 21.4507C38.6334 21.4507 38.959 21.2928 39.1738 20.9688C39.3902 20.6425 39.5009 20.1778 39.5009 19.5915C39.5009 19.0045 39.3914 18.5431 39.1738 18.2195ZM48.8928 21.2935L49.1431 21.9808C49.1754 22.065 49.102 22.1017 49.102 22.1017C48.7159 22.2506 48.18 22.3569 47.6584 22.3569C46.774 22.3569 46.0966 22.1039 45.6446 21.6041C45.1953 21.1057 44.9661 20.4281 44.9661 19.5878C44.9661 19.1987 45.0229 18.8305 45.1335 18.4971C45.2442 18.1608 45.4102 17.8641 45.6292 17.6171C45.6856 17.5539 45.7455 17.4936 45.8087 17.4368C45.8719 17.3799 45.9382 17.3264 46.007 17.2766C46.0763 17.2273 46.1478 17.1812 46.2219 17.1393C46.2957 17.097 46.3721 17.0593 46.4504 17.0256C46.7759 16.8812 47.1586 16.8086 47.5861 16.8086C47.8744 16.8086 48.1311 16.8262 48.3512 16.8587C48.5861 16.8946 48.8996 16.9788 49.0317 17.0301C49.0557 17.0391 49.1227 17.0716 49.0956 17.1498C48.9993 17.4196 48.9334 17.5958 48.8442 17.8416C48.8051 17.9464 48.7257 17.9116 48.7257 17.9116C48.3904 17.8068 48.0686 17.7589 47.6486 17.7589C47.1439 17.7589 46.7646 17.9258 46.5173 18.2524C46.2671 18.5821 46.1271 19.0134 46.1252 19.5878C46.1233 20.2175 46.2821 20.684 46.5636 20.9725C46.8444 21.2606 47.2361 21.4061 47.7299 21.4061C47.9297 21.4061 48.1187 21.393 48.2888 21.3669C48.4566 21.3403 48.6143 21.2883 48.7626 21.2307C48.7626 21.2307 48.8585 21.1951 48.8928 21.2935ZM54.2116 19.7891C54.2029 19.877 54.1119 19.8781 54.1119 19.8781L50.6612 19.8755C50.6827 20.3967 50.8084 20.7656 51.0624 21.0159C51.3115 21.2613 51.7074 21.4185 52.2437 21.4192C53.0626 21.4211 53.4126 21.2572 53.6606 21.1659C53.6606 21.1659 53.7551 21.1323 53.7908 21.2254L54.0155 21.854C54.0611 21.9595 54.0245 21.9966 53.9862 22.0179C53.7701 22.1361 53.2459 22.3576 52.2482 22.3602C51.7643 22.3621 51.3428 22.2933 50.9958 22.1593C50.9137 22.1294 50.8332 22.0942 50.7553 22.0549C50.6774 22.0156 50.6014 21.9719 50.5284 21.9236C50.4553 21.8757 50.3853 21.8233 50.3184 21.7672C50.2514 21.7111 50.1878 21.6512 50.1276 21.588C50.0704 21.5259 50.0165 21.4604 49.9665 21.3923C49.9164 21.3242 49.8701 21.2535 49.828 21.1802C49.7858 21.1068 49.7482 21.0312 49.7143 20.9538C49.6808 20.8763 49.6515 20.797 49.627 20.7162C49.6003 20.6275 49.577 20.5381 49.557 20.4476C49.5371 20.3574 49.5205 20.2661 49.5077 20.1744C49.4946 20.0831 49.4851 19.9911 49.4791 19.8987C49.4731 19.8063 49.4705 19.7139 49.4712 19.6214C49.4712 19.2331 49.5213 18.8642 49.6225 18.5271C49.7234 18.1873 49.8803 17.8876 50.0892 17.6358C50.1434 17.5718 50.2006 17.5109 50.2615 17.4532C50.3221 17.3956 50.3861 17.3414 50.4531 17.2909C50.5197 17.24 50.5893 17.1932 50.6616 17.1506C50.7335 17.1075 50.808 17.0686 50.8844 17.0338C51.2009 16.8857 51.593 16.8131 52.0239 16.8131C52.3935 16.8131 52.7307 16.892 53.0114 17.0125C53.2275 17.1045 53.445 17.2707 53.6678 17.509C53.8085 17.659 54.0227 17.9879 54.1092 18.3119C54.3313 19.0849 54.2153 19.752 54.2116 19.7891ZM53.139 19.0284C53.1134 18.7141 53.0517 18.4316 52.9098 18.2195C52.6934 17.8985 52.3954 17.7219 51.9426 17.7219C51.4895 17.7219 51.1678 17.8985 50.9548 18.2195C50.8155 18.4316 50.7256 18.7022 50.6766 19.0284H53.139ZM26.5714 19.7891C26.5624 19.877 26.4713 19.8781 26.4713 19.8781L23.0195 19.8755C23.0417 20.3967 23.1666 20.7656 23.4214 21.0159C23.6709 21.2613 24.0661 21.4185 24.602 21.4192C25.4213 21.4211 25.7724 21.2572 26.0197 21.1659C26.0197 21.1659 26.1141 21.1323 26.1495 21.2254L26.3749 21.854C26.4205 21.9595 26.384 21.9966 26.346 22.0179C26.1284 22.1361 25.6038 22.3576 24.6073 22.3602C24.1229 22.3621 23.7014 22.2933 23.3548 22.1593C23.2728 22.1294 23.1926 22.0942 23.1143 22.0549C23.0364 22.0153 22.9604 21.9715 22.8874 21.9236C22.8144 21.8753 22.744 21.8233 22.677 21.7672C22.61 21.7111 22.5464 21.6512 22.4862 21.588C22.429 21.5259 22.3752 21.4604 22.3255 21.3923C22.2755 21.3242 22.2296 21.2531 22.1874 21.1798C22.1453 21.1068 22.1076 21.0312 22.0741 20.9538C22.0406 20.8763 22.0113 20.797 21.9868 20.7162C21.9597 20.6275 21.9364 20.5381 21.9165 20.4476C21.8965 20.3574 21.8796 20.2661 21.8668 20.1748C21.8536 20.0831 21.8438 19.9911 21.8378 19.8987C21.8314 19.8063 21.8288 19.7139 21.8299 19.6214C21.8299 19.2331 21.8807 18.8642 21.9808 18.5271C22.0041 18.4459 22.0316 18.3662 22.0632 18.2876C22.0948 18.2094 22.1302 18.1327 22.1693 18.0579C22.2085 17.983 22.2518 17.9105 22.2981 17.8397C22.3447 17.7694 22.3952 17.7013 22.4486 17.6358C22.5024 17.5718 22.56 17.5109 22.6206 17.4532C22.6815 17.3956 22.7451 17.3414 22.8121 17.2909C22.8787 17.2403 22.9484 17.1936 23.0203 17.1506C23.0925 17.1075 23.1666 17.0686 23.243 17.0338C23.5607 16.8857 23.9528 16.8131 24.3826 16.8131C24.4673 16.8131 24.552 16.8172 24.6363 16.8254C24.7206 16.8336 24.8041 16.8464 24.8873 16.8628C24.9701 16.8797 25.0521 16.9006 25.133 16.9257C25.2139 16.9504 25.2933 16.9796 25.3712 17.0125C25.5873 17.1045 25.8048 17.2707 26.0268 17.509C26.1676 17.659 26.3821 17.9879 26.4679 18.3119C26.6892 19.0849 26.5751 19.752 26.5714 19.7891ZM25.4981 19.0284C25.4721 18.7141 25.4104 18.4316 25.2689 18.2195C25.054 17.8985 24.7544 17.7219 24.3021 17.7219C23.8486 17.7219 23.5264 17.8985 23.3146 18.2195C23.1738 18.4316 23.0846 18.7022 23.0346 19.0284H25.4981ZM17.5182 18.9315V18.7863C17.5182 18.3288 17.4222 18.1132 17.234 17.9692C17.0414 17.8229 16.7535 17.7469 16.3809 17.7469C16.3809 17.7469 15.5409 17.7368 14.8767 18.0953C14.8462 18.1132 14.8206 18.1237 14.8206 18.1237C14.8206 18.1237 14.7374 18.1529 14.7073 18.068L14.4631 17.4158C14.4254 17.3219 14.4935 17.2793 14.4935 17.2793C14.8044 17.0383 15.5571 16.8928 15.5571 16.8928C15.6335 16.8797 15.7102 16.8677 15.787 16.8576C15.8638 16.8475 15.9409 16.8385 16.0181 16.8314C16.0952 16.8247 16.1728 16.8191 16.2503 16.8149C16.3274 16.8112 16.405 16.809 16.4825 16.8082C17.1716 16.8082 17.7048 16.9672 18.0676 17.2823C18.4312 17.5988 18.616 18.1088 18.616 18.7961L18.6178 21.9337C18.6178 21.9337 18.625 22.0242 18.5384 22.0448C18.5384 22.0448 18.4116 22.08 18.2976 22.1066C18.1824 22.1327 17.7669 22.2169 17.4275 22.2742C17.3409 22.2884 17.254 22.3011 17.1671 22.312C17.0797 22.3228 16.9924 22.3318 16.9051 22.3389C16.8174 22.3464 16.7301 22.3516 16.6424 22.3554C16.5548 22.3587 16.4667 22.3606 16.379 22.3606C16.0437 22.3606 15.7362 22.3295 15.4653 22.2682C15.4024 22.2551 15.3403 22.239 15.279 22.2195C15.2176 22.2001 15.1574 22.1776 15.0987 22.1522C15.0396 22.1268 14.982 22.0983 14.926 22.0673C14.8699 22.0362 14.8153 22.0022 14.7626 21.9651C14.7148 21.9307 14.6693 21.8933 14.626 21.8533C14.5827 21.8128 14.5421 21.7702 14.5045 21.7249C14.4664 21.6796 14.4314 21.6321 14.3995 21.5827C14.3675 21.5334 14.3389 21.4817 14.3133 21.429C14.2072 21.2135 14.1537 20.9501 14.1537 20.6459C14.1537 20.3473 14.2169 20.0813 14.3389 19.8549C14.4612 19.6297 14.629 19.4389 14.8402 19.2892C14.8943 19.2514 14.9504 19.2155 15.008 19.1826C15.0656 19.1496 15.1247 19.119 15.1849 19.0913C15.2455 19.0636 15.3068 19.0381 15.3693 19.0161C15.4318 18.9936 15.4954 18.9742 15.5597 18.9573C15.8288 18.8862 16.1148 18.8492 16.4102 18.8492C16.627 18.8492 16.808 18.8537 16.9488 18.8649C16.9488 18.8649 17.2212 18.8889 17.5182 18.9315ZM16.5875 21.4746C17.0809 21.4451 17.5186 21.3519 17.5186 21.3519V19.7921C17.5186 19.7921 17.0771 19.7202 16.5815 19.7131C15.8788 19.7049 15.5793 19.9615 15.5812 19.9612C15.3742 20.1075 15.2733 20.3241 15.2733 20.6245C15.2733 20.8165 15.3079 20.9669 15.3776 21.0717C15.4212 21.1409 15.44 21.1667 15.5755 21.2748C15.5736 21.2741 15.8849 21.5176 16.5875 21.4746ZM44.5258 17.8169C44.5036 17.8764 44.467 17.9172 44.4001 17.9101C44.4001 17.9101 44.2021 17.8648 44.0211 17.8648C43.8969 17.8648 43.7189 17.8805 43.5586 17.9295C43.5187 17.9419 43.4795 17.9565 43.4415 17.9733C43.4031 17.9901 43.3659 18.0096 43.3301 18.0309C43.2944 18.0523 43.2598 18.0758 43.227 18.1016C43.1939 18.1271 43.1623 18.1544 43.1329 18.184C43.0065 18.3048 42.9041 18.475 42.83 18.6887C42.7543 18.9034 42.7156 19.2454 42.7156 19.5881V22.1432C42.7156 22.1571 42.7129 22.1705 42.7077 22.1833C42.7024 22.1956 42.6949 22.2072 42.6851 22.2169C42.6753 22.2267 42.664 22.2341 42.6512 22.2394C42.6384 22.2446 42.6249 22.2476 42.6113 22.2476H41.7055C41.6916 22.2476 41.6776 22.245 41.6648 22.2401C41.652 22.2349 41.6404 22.2274 41.6302 22.2177C41.6204 22.2079 41.6125 22.1967 41.6073 22.184C41.6016 22.1713 41.5986 22.1578 41.5986 22.144V17.0282C41.5986 16.9706 41.6407 16.9246 41.6987 16.9246H42.5827C42.641 16.9246 42.6828 16.9706 42.6828 17.0282V17.4461C42.8149 17.2703 43.052 17.1146 43.2665 17.0189C43.4814 16.9219 43.7215 16.8509 44.1558 16.8767C44.382 16.8901 44.6755 16.9519 44.735 16.9743C44.7463 16.9788 44.7568 16.9859 44.7659 16.9945C44.7749 17.0031 44.7817 17.0136 44.7866 17.0252C44.7915 17.0364 44.7937 17.0488 44.7937 17.0611C44.7937 17.0735 44.7911 17.0858 44.7862 17.0974C44.7538 17.1913 44.5863 17.6609 44.5258 17.8169ZM36.3385 14.8458L36.0736 15.566C36.0514 15.6207 36.0371 15.6528 35.9245 15.6192C35.8873 15.6076 35.8496 15.5975 35.8116 15.5885C35.7736 15.5799 35.7352 15.5724 35.6968 15.5664C35.6585 15.5604 35.6197 15.5559 35.5809 15.5529C35.5418 15.5499 35.503 15.5481 35.4639 15.5481C35.3273 15.5481 35.2035 15.5657 35.094 15.6016C35.0669 15.6105 35.0401 15.6207 35.0142 15.6326C34.9882 15.6446 34.963 15.6581 34.9385 15.673C34.9144 15.6876 34.8907 15.7041 34.8685 15.722C34.8463 15.7396 34.8249 15.7587 34.8049 15.7789C34.7782 15.8047 34.753 15.8317 34.7293 15.8601C34.7056 15.8885 34.6837 15.9181 34.6634 15.9488C34.6431 15.9795 34.6243 16.0116 34.6077 16.0442C34.5908 16.0771 34.5757 16.1108 34.5626 16.1452C34.4357 16.5078 34.3868 16.8943 34.3804 16.9186H35.4835C35.5768 16.9186 35.6058 16.9616 35.5967 17.0293L35.468 17.7425C35.447 17.8461 35.3525 17.8424 35.3525 17.8424H34.2156L33.4388 22.2143C33.4219 22.3123 33.4031 22.41 33.382 22.5073C33.3609 22.6042 33.338 22.7011 33.3124 22.7972C33.2872 22.8934 33.2597 22.9888 33.2303 23.0838C33.2006 23.1785 33.169 23.2728 33.1351 23.3663C33.0136 23.6828 32.8879 23.9141 32.6858 24.1344C32.6429 24.1838 32.5969 24.2302 32.5484 24.2736C32.4999 24.317 32.4483 24.3574 32.3949 24.3949C32.341 24.4319 32.285 24.4659 32.227 24.4959C32.1694 24.5262 32.1096 24.5531 32.0482 24.5759C31.8093 24.6635 31.5187 24.708 31.2015 24.708C31.0506 24.708 30.8876 24.7047 30.6957 24.6594C30.669 24.6534 30.6422 24.647 30.6155 24.6399C30.5892 24.6332 30.5628 24.6257 30.5365 24.6182C30.5101 24.6107 30.4838 24.6025 30.4578 24.5939C30.4315 24.5857 30.4055 24.5767 30.3799 24.5677C30.3374 24.5527 30.3028 24.4989 30.3276 24.4304C30.3513 24.3623 30.5557 23.8063 30.5832 23.7334C30.6182 23.6454 30.7081 23.6791 30.7081 23.6791C30.7691 23.7049 30.8123 23.7218 30.8936 23.7378C30.9764 23.7539 31.0871 23.7682 31.171 23.7682C31.3215 23.7682 31.4581 23.7502 31.5774 23.7102C31.7208 23.6641 31.8055 23.5807 31.8924 23.4692C31.9839 23.3521 32.058 23.1935 32.134 22.9806C32.2104 22.7651 32.2801 22.4803 32.3399 22.1354L33.1137 17.8427H32.3516C32.2605 17.8427 32.2293 17.8001 32.2398 17.7316L32.3674 17.0185C32.3877 16.9148 32.4844 16.9186 32.4844 16.9186H33.2668L33.309 16.687C33.4264 15.9985 33.6586 15.4747 34.0026 15.1313C34.3484 14.7852 34.8399 14.6104 35.4639 14.6104C35.6423 14.6104 35.8 14.622 35.9336 14.646C36.0645 14.6703 36.1639 14.6931 36.2749 14.7268C36.299 14.7365 36.3645 14.7683 36.3385 14.8458ZM20.7573 22.2476H19.8424C19.7837 22.2476 19.7438 22.2008 19.7438 22.144V14.8226C19.7438 14.7661 19.7845 14.7197 19.8417 14.7197H20.7573C20.816 14.7197 20.8563 14.7661 20.8563 14.8233V22.1432C20.8563 22.2016 20.816 22.2476 20.7573 22.2476Z" fill="white"/>
</g>
</g>
<defs>
<clipPath id="clip0_44_2478">
<rect width="59.5745" height="41.4185" fill="white" transform="translate(0.787354 0.148834)"/>
</clipPath>
</defs>
</svg>
