<svg width="56" height="56" viewBox="0 0 56 56" fill="none" xmlns="http://www.w3.org/2000/svg">
<g id="Google_Calendar_icon_(2020) 1" clip-path="url(#clip0_44_2439)">
<g id="Group">
<g id="Group_2">
<path id="Vector" d="M42.5576 13.4422L29.4558 11.9865L13.4423 13.4422L11.9863 28L13.4421 42.5578L27.9998 44.3776L42.5576 42.5578L44.0133 27.6363L42.5576 13.4422Z" fill="white"/>
<path id="Vector_2" d="M19.4147 36.0285C18.3266 35.2933 17.5732 34.2198 17.1619 32.8003L19.6877 31.7595C19.917 32.633 20.3173 33.3098 20.8887 33.7903C21.4566 34.2707 22.1481 34.5072 22.956 34.5072C23.7822 34.5072 24.4919 34.2561 25.085 33.7538C25.678 33.2515 25.9767 32.6109 25.9767 31.8358C25.9767 31.0426 25.6636 30.3945 25.0377 29.8925C24.4117 29.3905 23.6256 29.139 22.6866 29.139H21.2273V26.6389H22.5372C23.3452 26.6389 24.0259 26.4207 24.5791 25.9839C25.1323 25.5472 25.4089 24.9503 25.4089 24.1896C25.4089 23.5128 25.1613 22.974 24.6665 22.5702C24.1716 22.1663 23.5454 21.9625 22.7848 21.9625C22.0424 21.9625 21.4527 22.1591 21.016 22.5558C20.5792 22.9524 20.2625 23.4401 20.0625 24.0151L17.5624 22.9743C17.8935 22.0352 18.5014 21.2054 19.3929 20.4885C20.2846 19.7716 21.4237 19.4112 22.8066 19.4112C23.8292 19.4112 24.75 19.6078 25.5654 20.0045C26.3805 20.4011 27.0211 20.9507 27.4833 21.6494C27.9455 22.3517 28.1748 23.138 28.1748 24.0112C28.1748 24.903 27.9602 25.6561 27.5306 26.2749C27.1011 26.8936 26.5733 27.3666 25.9474 27.698V27.8471C26.7736 28.1928 27.4468 28.7205 27.9782 29.4303C28.5059 30.14 28.7714 30.9881 28.7714 31.978C28.7714 32.9679 28.5203 33.8522 28.018 34.6275C27.5157 35.4028 26.8206 36.0141 25.9399 36.458C25.0556 36.902 24.0621 37.1277 22.9593 37.1277C21.682 37.1313 20.5029 36.7637 19.4147 36.0285Z" fill="#1A73E8"/>
<path id="Vector_3" d="M34.9149 23.4945L32.1561 25.4999L30.7695 23.3964L35.7447 19.8078H37.6518V36.7346H34.9149V23.4945Z" fill="#1A73E8"/>
<path id="Vector_4" d="M42.5577 55.6596L55.6595 42.5578L49.1086 39.6463L42.5577 42.5578L39.6462 49.1087L42.5577 55.6596Z" fill="#EA4335"/>
<path id="Vector_5" d="M10.5308 49.1087L13.4422 55.6596H42.5575V42.5578H13.4422L10.5308 49.1087Z" fill="#34A853"/>
<path id="Vector_6" d="M4.70751 0.340424C2.29476 0.340424 0.340332 2.29485 0.340332 4.7076V42.5576L6.89123 45.469L13.4421 42.5576V13.4422H42.5575L45.4689 6.89132L42.5577 0.340424H4.70751Z" fill="#4285F4"/>
<path id="Vector_7" d="M0.340332 42.5578V51.2924C0.340332 53.7054 2.29476 55.6596 4.7075 55.6596H13.4421V42.5578H0.340332Z" fill="#188038"/>
<path id="Vector_8" d="M42.5576 13.4423V42.5576H55.6594V13.4423L49.1085 10.5309L42.5576 13.4423Z" fill="#FBBC04"/>
<path id="Vector_9" d="M55.6594 13.4422V4.70753C55.6594 2.29451 53.705 0.340363 51.2922 0.340363H42.5576V13.4422H55.6594Z" fill="#1967D2"/>
</g>
</g>
</g>
<defs>
<clipPath id="clip0_44_2439">
<rect width="55.3191" height="55.3191" fill="white" transform="translate(0.340332 0.340424)"/>
</clipPath>
</defs>
</svg>
