<svg width="56" height="56" viewBox="0 0 56 56" fill="none" xmlns="http://www.w3.org/2000/svg">
<g id="hubspot-1 2" clip-path="url(#clip0_44_2406)">
<path id="Vector" d="M41.8804 19.0665V12.5699C42.7389 12.1687 43.4658 11.5318 43.9765 10.7335C44.4871 9.93523 44.7606 9.00831 44.7649 8.06066V7.91159C44.7649 5.14858 42.5251 2.9087 39.7623 2.9087H39.613C36.85 2.9087 34.6101 5.14858 34.6101 7.91159V8.06066C34.6144 9.00831 34.8879 9.93523 35.3985 10.7335C35.9092 11.5318 36.6361 12.1687 37.4946 12.5699V19.0665C35.0272 19.4444 32.7034 20.4675 30.7585 22.0323L12.9412 8.15445C13.0683 7.69582 13.1345 7.2242 13.142 6.75081C13.1442 5.63585 12.8157 4.54529 12.1979 3.61707C11.5802 2.68885 10.7011 1.96468 9.67179 1.53616C8.64246 1.10765 7.50916 0.994027 6.41525 1.20968C5.32134 1.42534 4.31596 1.96058 3.52628 2.7477C2.7366 3.53482 2.1981 4.53846 1.9789 5.63166C1.7597 6.72487 1.86964 7.85853 2.29482 8.88924C2.72 9.91996 3.44131 10.8014 4.36752 11.4221C5.29373 12.0429 6.38322 12.3749 7.49819 12.3764C8.47358 12.3718 9.4307 12.1114 10.274 11.6212L27.8189 25.2738C24.5933 30.1465 24.6796 36.4971 28.0362 41.2807L22.7 46.6185C22.2684 46.4807 21.8193 46.4074 21.3663 46.4012C18.8107 46.4034 16.7404 48.4759 16.7411 51.0315C16.7417 53.5869 18.8134 55.6584 21.3688 55.659C23.9244 55.6597 25.9969 53.5894 25.9991 51.0337C25.9931 50.581 25.9198 50.1316 25.7816 49.7003L31.0606 44.4194C35.7775 48.0506 42.2558 48.3634 47.3007 45.2036C52.3455 42.0436 54.8914 36.0781 53.6826 30.2496C52.4738 24.4208 47.7657 19.96 41.8804 19.0665ZM39.6922 40.4333C38.717 40.4595 37.7463 40.2901 36.8376 39.935C35.9289 39.5799 35.1006 39.0463 34.4015 38.3658C33.7024 37.6853 33.1468 36.8716 32.7674 35.9728C32.388 35.0739 32.1925 34.1082 32.1925 33.1326C32.1925 32.157 32.388 31.1912 32.7674 30.2924C33.1468 29.3936 33.7024 28.5799 34.4015 27.8994C35.1006 27.2188 35.9289 26.6853 36.8376 26.3302C37.7463 25.9751 38.717 25.8057 39.6922 25.8319C43.6224 25.9695 46.7379 29.1945 46.7401 33.1273C46.7419 37.0597 43.6297 40.2879 39.6995 40.4295" fill="#FF7A59"/>
</g>
<defs>
<clipPath id="clip0_44_2406">
<rect width="55.3191" height="55.3191" fill="white" transform="translate(0.340332 0.340424)"/>
</clipPath>
</defs>
</svg>
