<svg width="56" height="52" viewBox="0 0 56 52" fill="none" xmlns="http://www.w3.org/2000/svg">
<g id="Microsoft_Office_Teams_(2018&#226;&#128;&#147;present) 1" clip-path="url(#clip0_44_2410)">
<path id="Vector" d="M38.9262 20.0426H53.2153C54.5652 20.0426 55.6596 21.1285 55.6596 22.4681V35.3835C55.6596 40.3068 51.6375 44.2979 46.676 44.2979H46.6335C41.672 44.2986 37.6494 40.3081 37.6487 35.3847C37.6487 35.3843 37.6487 35.3839 37.6487 35.3834V21.3103C37.6487 20.6102 38.2207 20.0426 38.9262 20.0426Z" fill="#5059C9"/>
<path id="Vector_2" d="M48.5839 17.4893C51.7812 17.4893 54.3731 14.9173 54.3731 11.7446C54.3731 8.57192 51.7812 5.99994 48.5839 5.99994C45.3866 5.99994 42.7947 8.57192 42.7947 11.7446C42.7947 14.9173 45.3866 17.4893 48.5839 17.4893Z" fill="#5059C9"/>
<path id="Vector_3" d="M30.5729 17.4894C35.1912 17.4894 38.9351 13.7743 38.9351 9.19155C38.9351 4.60876 35.1912 0.893677 30.5729 0.893677C25.9546 0.893677 22.2107 4.60876 22.2107 9.19155C22.2107 13.7743 25.9546 17.4894 30.5729 17.4894Z" fill="#7B83EB"/>
<path id="Vector_4" d="M41.7229 20.0426H18.1363C16.8024 20.0754 15.7472 21.1738 15.7782 22.4975V37.2282C15.5919 45.1714 21.925 51.7631 29.9296 51.9575C37.9342 51.7631 44.2673 45.1714 44.081 37.2282V22.4975C44.1119 21.1738 43.0567 20.0754 41.7229 20.0426Z" fill="#7B83EB"/>
<path id="Vector_5" opacity="0.1" d="M31.2162 20.0426V40.6851C31.2098 41.6318 30.6317 42.4822 29.7496 42.8426C29.4687 42.9605 29.1669 43.0212 28.8619 43.0213H16.9104C16.7431 42.6 16.5888 42.1788 16.4601 41.7447C16.0098 40.2799 15.78 38.7571 15.7783 37.2256V22.4937C15.7473 21.1721 16.8008 20.0754 18.1325 20.0426H31.2162Z" fill="black"/>
<path id="Vector_6" opacity="0.2" d="M29.9297 20.0426V41.9618C29.9296 42.2644 29.8684 42.5639 29.7496 42.8426C29.3864 43.718 28.5294 44.2916 27.5754 44.2979H17.515C17.2963 43.8767 17.0905 43.4554 16.9104 43.0214C16.7303 42.5873 16.5888 42.1788 16.4601 41.7448C16.0098 40.2799 15.78 38.7571 15.7783 37.2256V22.4937C15.7473 21.1721 16.8008 20.0754 18.1325 20.0426H29.9297Z" fill="black"/>
<path id="Vector_7" opacity="0.2" d="M29.9297 20.0426V39.4086C29.9199 40.6948 28.8715 41.735 27.5754 41.7448H16.4601C16.0098 40.2799 15.78 38.7571 15.7783 37.2256V22.4937C15.7473 21.1721 16.8008 20.0754 18.1325 20.0426H29.9297Z" fill="black"/>
<path id="Vector_8" opacity="0.2" d="M28.6432 20.0426V39.4086C28.6334 40.6948 27.5851 41.735 26.2889 41.7448H16.4601C16.0098 40.2799 15.78 38.7571 15.7783 37.2256V22.4937C15.7473 21.1721 16.8008 20.0754 18.1325 20.0426H28.6432Z" fill="black"/>
<path id="Vector_9" opacity="0.1" d="M31.216 13.4426V17.4639C30.9973 17.4766 30.7915 17.4894 30.5728 17.4894C30.3541 17.4894 30.1482 17.4766 29.9295 17.4639C29.4953 17.4353 29.0646 17.3669 28.643 17.2596C26.0379 16.6474 23.8856 14.8344 22.8538 12.383C22.6763 11.9714 22.5385 11.5439 22.4421 11.1064H28.8617C30.1599 11.1113 31.2111 12.1544 31.216 13.4426Z" fill="black"/>
<path id="Vector_10" opacity="0.2" d="M29.9297 14.7191V17.4638C29.4955 17.4352 29.0648 17.3668 28.6432 17.2595C26.0381 16.6473 23.8858 14.8343 22.854 12.3829H27.5754C28.8736 12.3878 29.9248 13.4309 29.9297 14.7191Z" fill="black"/>
<path id="Vector_11" opacity="0.2" d="M29.9297 14.7191V17.4638C29.4955 17.4352 29.0648 17.3668 28.6432 17.2595C26.0381 16.6473 23.8858 14.8343 22.854 12.3829H27.5754C28.8736 12.3878 29.9248 13.4309 29.9297 14.7191Z" fill="black"/>
<path id="Vector_12" opacity="0.2" d="M28.6432 14.7191V17.2595C26.0381 16.6473 23.8858 14.8343 22.854 12.3829H26.2889C27.5871 12.3878 28.6383 13.4309 28.6432 14.7191Z" fill="black"/>
<path id="Vector_13" d="M2.69846 12.3829H26.285C27.5874 12.3829 28.6431 13.4306 28.6431 14.7229V38.128C28.6431 39.4204 27.5874 40.468 26.285 40.468H2.69846C1.39609 40.468 0.340332 39.4204 0.340332 38.128V14.7229C0.340332 13.4306 1.39612 12.3829 2.69846 12.3829Z" fill="url(#paint0_linear_44_2410)"/>
<path id="Vector_14" d="M20.6977 21.291H15.9827V34.0314H12.9788V21.291H8.28564V18.8195H20.6977V21.291Z" fill="white"/>
</g>
<defs>
<linearGradient id="paint0_linear_44_2410" x1="5.25711" y1="10.5545" x2="23.5133" y2="42.4186" gradientUnits="userSpaceOnUse">
<stop stop-color="#5A62C3"/>
<stop offset="0.5" stop-color="#4D55BD"/>
<stop offset="1" stop-color="#3940AB"/>
</linearGradient>
<clipPath id="clip0_44_2410">
<rect width="55.3191" height="51.0638" fill="white" transform="translate(0.340332 0.893616)"/>
</clipPath>
</defs>
</svg>
