<svg width="52" height="59" viewBox="0 0 52 59" fill="none" xmlns="http://www.w3.org/2000/svg">
<g id="shopify 1" clip-path="url(#clip0_44_2490)">
<path id="Vector" d="M45.5272 12.0619C45.4872 11.7711 45.2321 11.6101 45.0212 11.5923C44.8108 11.5748 40.3576 11.2451 40.3576 11.2451C40.3576 11.2451 37.2647 8.17801 36.9253 7.83852C36.5856 7.49924 35.9222 7.60244 35.6647 7.67815C35.6268 7.6893 34.989 7.88594 33.9339 8.21207C32.9008 5.24241 31.0774 2.51341 27.8697 2.51341C27.7812 2.51341 27.69 2.51699 27.5989 2.52217C26.6866 1.31705 25.5565 0.793488 24.5804 0.793488C17.1081 0.793488 13.5382 10.1242 12.4189 14.8658C9.51533 15.7645 7.45264 16.4035 7.18917 16.4861C5.56845 16.994 5.51719 17.045 5.30438 18.5704C5.14423 19.7254 0.903564 52.4839 0.903564 52.4839L33.9477 58.6683L51.8521 54.7993C51.8521 54.7993 45.5667 12.3528 45.5272 12.0619ZM32.1076 8.77628L29.3115 9.64073C29.3125 9.44389 29.3135 9.25024 29.3135 9.03846C29.3135 7.19283 29.057 5.7068 28.6456 4.52878C30.2984 4.73598 31.3992 6.61448 32.1076 8.77628ZM26.5952 4.89476C27.0548 6.04489 27.3535 7.69548 27.3535 9.92283C27.3535 10.0368 27.3526 10.141 27.3516 10.2464C25.5332 10.809 23.5573 11.4198 21.5769 12.0326C22.6889 7.74608 24.7731 5.67573 26.5952 4.89476ZM24.3752 2.79551C24.6977 2.79551 25.0226 2.90489 25.3335 3.11866C22.9388 4.24428 20.3719 7.07927 19.2879 12.7407L14.7233 14.1528C15.993 9.83457 19.008 2.79551 24.3752 2.79551Z" fill="#95BF46"/>
<path id="Vector_2" d="M45.0214 11.5923C44.811 11.5748 40.3577 11.2451 40.3577 11.2451C40.3577 11.2451 37.2649 8.178 36.9254 7.83852C36.7984 7.71221 36.6271 7.64746 36.4479 7.61957L33.9495 58.6679L51.8523 54.7993C51.8523 54.7993 45.5669 12.3528 45.5274 12.0619C45.4873 11.771 45.2322 11.6101 45.0214 11.5923Z" fill="#5E8E3E"/>
<path id="Vector_3" d="M27.87 21.4743L25.6623 28.034C25.6623 28.034 23.728 27.0028 21.357 27.0028C17.881 27.0028 17.7061 29.1818 17.7061 29.7308C17.7061 32.7268 25.5245 33.8747 25.5245 40.8923C25.5245 46.4134 22.0188 49.9686 17.2918 49.9686C11.6195 49.9686 8.71875 46.4423 8.71875 46.4423L10.2375 41.4298C10.2375 41.4298 13.2193 43.9869 15.7353 43.9869C17.3794 43.9869 18.0481 42.6939 18.0481 41.7491C18.0481 37.8411 11.6339 37.6668 11.6339 31.2451C11.6339 25.8403 15.5175 20.61 23.3571 20.61C26.3777 20.61 27.87 21.4743 27.87 21.4743Z" fill="white"/>
</g>
<defs>
<clipPath id="clip0_44_2490">
<rect width="51.0638" height="58.1741" fill="white" transform="translate(0.893555 0.638306)"/>
</clipPath>
</defs>
</svg>
