<svg width="56" height="56" viewBox="0 0 56 56" fill="none" xmlns="http://www.w3.org/2000/svg">
<g id="Slack_icon_2019 1" clip-path="url(#clip0_44_2496)">
<path id="Vector" d="M12.1881 35.1873C12.1881 38.367 9.61818 40.937 6.43842 40.937C3.25866 40.937 0.688721 38.367 0.688721 35.1873C0.688721 32.0075 3.25866 29.4376 6.43842 29.4376H12.1881V35.1873ZM15.063 35.1873C15.063 32.0075 17.6329 29.4376 20.8127 29.4376C23.9924 29.4376 26.5624 32.0075 26.5624 35.1873V49.5615C26.5624 52.7413 23.9924 55.3112 20.8127 55.3112C17.6329 55.3112 15.063 52.7413 15.063 49.5615V35.1873Z" fill="#E01E5A"/>
<path id="Vector_2" d="M20.8128 12.1013C17.633 12.1013 15.0631 9.53131 15.0631 6.35155C15.0631 3.17178 17.633 0.601837 20.8128 0.601837C23.9926 0.601837 26.5625 3.17178 26.5625 6.35155V12.1013H20.8128ZM20.8128 15.0197C23.9926 15.0197 26.5625 17.5896 26.5625 20.7694C26.5625 23.9491 23.9926 26.5191 20.8128 26.5191H6.39497C3.21521 26.5191 0.645264 23.9491 0.645264 20.7694C0.645264 17.5896 3.21521 15.0197 6.39497 15.0197H20.8128Z" fill="#36C5F0"/>
<path id="Vector_3" d="M43.8552 20.7694C43.8552 17.5896 46.4252 15.0197 49.6049 15.0197C52.7847 15.0197 55.3546 17.5896 55.3546 20.7694C55.3546 23.9491 52.7847 26.5191 49.6049 26.5191H43.8552V20.7694ZM40.9804 20.7694C40.9804 23.9491 38.4104 26.5191 35.2307 26.5191C32.0509 26.5191 29.481 23.9491 29.481 20.7694V6.35155C29.481 3.17178 32.0509 0.601837 35.2307 0.601837C38.4104 0.601837 40.9804 3.17178 40.9804 6.35155V20.7694Z" fill="#2EB67D"/>
<path id="Vector_4" d="M35.2307 43.8118C38.4104 43.8118 40.9804 46.3818 40.9804 49.5615C40.9804 52.7413 38.4104 55.3112 35.2307 55.3112C32.0509 55.3112 29.481 52.7413 29.481 49.5615V43.8118H35.2307ZM35.2307 40.937C32.0509 40.937 29.481 38.367 29.481 35.1873C29.481 32.0075 32.0509 29.4376 35.2307 29.4376H49.6485C52.8283 29.4376 55.3982 32.0075 55.3982 35.1873C55.3982 38.367 52.8283 40.937 49.6485 40.937H35.2307Z" fill="#ECB22E"/>
</g>
<defs>
<clipPath id="clip0_44_2496">
<rect width="55.3191" height="55.3191" fill="white" transform="translate(0.340332 0.340424)"/>
</clipPath>
</defs>
</svg>
