<svg width="56" height="56" viewBox="0 0 56 56" fill="none" xmlns="http://www.w3.org/2000/svg">
<g id="wordpress-blue 1" clip-path="url(#clip0_44_2453)">
<g id="Clip path group">
<mask id="mask0_44_2453" style="mask-type:luminance" maskUnits="userSpaceOnUse" x="0" y="0" width="56" height="56">
<g id="b">
<path id="Vector" d="M0.34082 0.340424H55.6595V55.6596H0.34082V0.340424Z" fill="white"/>
</g>
</mask>
<g mask="url(#mask0_44_2453)">
<g id="Group">
<g id="Group_2">
<path id="Vector_2" d="M4.27222 27.9994C4.27222 37.3919 9.73041 45.5081 17.6452 49.3549L6.32655 18.3427C4.9697 21.3811 4.26966 24.6718 4.27222 27.9994ZM44.0187 26.802C44.0187 23.8695 42.9653 21.8387 42.0619 20.258C40.8591 18.3034 39.7321 16.6482 39.7321 14.6937C39.7321 12.5125 41.386 10.4821 43.7162 10.4821C43.8214 10.4821 43.9211 10.4952 44.0241 10.5011C39.8021 6.6335 34.1778 4.27216 28.0004 4.27216C19.7108 4.27216 12.4177 8.52529 8.17499 14.9673C8.73169 14.984 9.25678 14.9953 9.70196 14.9953C12.1839 14.9953 16.0257 14.6941 16.0257 14.6941C17.3048 14.6187 17.4556 16.4974 16.1783 16.6487C16.1783 16.6487 14.8924 16.7999 13.4621 16.8749L22.1029 42.5765L27.296 27.0029L23.5987 16.8744C22.3209 16.7995 21.1105 16.6482 21.1105 16.6482C19.8318 16.5733 19.9817 14.6183 21.2604 14.6937C21.2604 14.6937 25.1789 14.9948 27.5105 14.9948C29.9919 14.9948 33.8342 14.6937 33.8342 14.6937C35.1142 14.6183 35.2645 16.497 33.9863 16.6482C33.9863 16.6482 32.6982 16.7995 31.2706 16.8744L39.8455 42.3815L42.2118 34.4725C43.238 31.1906 44.0187 28.8333 44.0187 26.802Z" fill="#00749A"/>
<path id="Vector_3" d="M28.4166 30.075L21.2974 50.7619C23.4739 51.4033 25.7312 51.729 28.0003 51.729C30.7635 51.729 33.4134 51.2508 35.8799 50.384C35.8137 50.2804 35.7572 50.171 35.711 50.0571L28.4166 30.075ZM48.8208 16.6154C48.9228 17.3712 48.9806 18.183 48.9806 19.0553C48.9806 21.4631 48.5309 24.1699 47.1764 27.5543L39.9285 48.5098C46.9827 44.3962 51.7275 36.7536 51.7275 27.9995C51.7339 24.0204 50.734 20.1043 48.8208 16.6154Z" fill="#00749A"/>
<path id="Vector_4" d="M28.0006 0.340424C12.7494 0.340424 0.34082 12.7481 0.34082 27.9993C0.34082 43.2523 12.749 55.66 28.0006 55.66C43.2514 55.66 55.6618 43.2528 55.6618 27.9993C55.6614 12.7481 43.2514 0.340424 28.0006 0.340424ZM28.0006 54.3917C13.4488 54.3917 1.60909 42.5521 1.60909 27.9993C1.60909 13.4479 13.4483 1.60914 28.0006 1.60914C42.5521 1.60914 54.3908 13.4479 54.3908 27.9993C54.3908 42.5521 42.5516 54.3917 28.0006 54.3917Z" fill="#00749A"/>
</g>
</g>
</g>
</g>
</g>
<defs>
<clipPath id="clip0_44_2453">
<rect width="55.3191" height="55.3191" fill="white" transform="translate(0.340332 0.340424)"/>
</clipPath>
</defs>
</svg>
