<svg width="56" height="56" viewBox="0 0 56 56" fill="none" xmlns="http://www.w3.org/2000/svg">
<g id="zapier 1" clip-path="url(#clip0_44_2427)">
<path id="Vector" d="M34.9146 28.0121C34.9155 30.0068 34.5557 31.9851 33.8525 33.8517C31.9852 34.5548 30.0064 34.9152 28.0111 34.9155H27.9878C25.9332 34.9129 23.9646 34.5374 22.1482 33.8526C21.4445 31.9858 21.0843 30.0071 21.085 28.0121V27.9879C21.0841 25.9936 21.4435 24.0156 22.146 22.1491C24.0132 21.4447 25.9924 21.0842 27.988 21.0851H28.0114C30.0067 21.0841 31.9858 21.4446 33.8527 22.1489C34.556 24.0152 34.9158 25.9933 34.9148 27.9877V28.0119L34.9146 28.0121ZM55.2753 23.3901H39.1299L50.5457 11.9734C49.6497 10.7147 48.6502 9.53302 47.5576 8.44057V8.43971C46.465 7.34843 45.2836 6.34982 44.0256 5.4542L32.6089 16.8709V0.725497C31.0905 0.470062 29.5535 0.341261 28.0137 0.340424L27.9852 0.340424C26.419 0.341288 24.885 0.4744 23.39 0.725497V16.8709L11.9733 5.4542C10.7151 6.34958 9.53425 7.3489 8.44308 8.44165L8.43702 8.44598C7.34632 9.53706 6.34821 10.7169 5.45303 11.9734L16.8706 23.3901H0.725405C0.725405 23.3901 0.340332 26.4225 0.340332 27.9905V28.0095C0.340332 29.5775 0.473228 31.1141 0.725405 32.6099H16.8708L5.45325 44.0266C7.24932 46.547 9.45286 48.7506 11.9733 50.5467L23.39 39.1291V55.2754C24.9068 55.5295 26.4419 55.658 27.9798 55.6596H28.0189C29.5568 55.6582 31.092 55.5297 32.6087 55.2754V39.1291L44.0265 50.5467C45.2842 49.6507 46.4653 48.6518 47.5576 47.5603L47.5602 47.5577C48.6513 46.4652 49.6499 45.2841 50.5457 44.0266L39.1281 32.6099H55.2753C55.5266 31.1167 55.6578 29.5846 55.6595 28.0201V27.9799C55.6578 26.4154 55.5266 24.8833 55.2753 23.3901Z" fill="#FF4A00"/>
</g>
<defs>
<clipPath id="clip0_44_2427">
<rect width="55.3191" height="55.3191" fill="white" transform="translate(0.340332 0.340424)"/>
</clipPath>
</defs>
</svg>
