<svg width="68" height="49" viewBox="0 0 68 49" fill="none" xmlns="http://www.w3.org/2000/svg">
<g id="ZEN_BIG 1" clip-path="url(#clip0_44_2474)">
<path id="Layer" fill-rule="evenodd" clip-rule="evenodd" d="M32.5556 8.19197V28.9327H15.2528L32.5556 8.19197ZM32.5556 0.750397C32.5556 3.02599 31.6443 5.21192 30.0236 6.82149C28.3986 8.43532 26.1976 9.34044 23.9064 9.34044C21.6108 9.34044 19.4098 8.43532 17.7891 6.82149C16.1641 5.21192 15.2528 3.02599 15.2528 0.750397H32.5556ZM35.4058 28.937C35.4058 26.6614 36.3171 24.4755 37.9421 22.8616C39.5628 21.2521 41.7638 20.347 44.0594 20.347C46.3549 20.347 48.5517 21.2521 50.1766 22.8616C51.7973 24.4755 52.7086 26.6614 52.7086 28.937H35.4058ZM35.4058 0.750397H52.7129L35.4058 21.4912V0.750397ZM45.0825 46.6892C45.306 46.6934 45.5253 46.6764 45.7402 46.6379C45.9551 46.5995 46.1701 46.544 46.3764 46.4629C46.5785 46.386 46.7762 46.2878 46.9611 46.1726C47.1459 46.053 47.3222 45.9207 47.4812 45.7712L48.6677 47.0435C47.8853 47.8462 46.7977 48.4396 45.104 48.4396C42.2023 48.4396 40.328 46.5269 40.328 43.9439C40.3194 43.3505 40.4268 42.7656 40.6461 42.2148C40.8696 41.6641 41.2006 41.1646 41.6219 40.7462C42.0432 40.3235 42.5462 39.9947 43.0964 39.7727C43.651 39.5465 44.2442 39.4355 44.8417 39.4483C47.722 39.4483 49.3512 41.6214 49.2094 44.6399H42.4C42.6407 45.8951 43.5306 46.6934 45.0782 46.6934L45.0825 46.6892ZM47.1502 43.2011C46.9654 42.0313 46.2604 41.1688 44.8546 41.1688C43.5478 41.1688 42.6321 41.9074 42.4 43.2011C42.4 43.2011 47.1545 43.2011 47.1502 43.2011ZM0.383057 46.591L5.61905 41.3055H0.507723V39.6489H8.0522V41.3396L2.81191 46.6251H8.12528V48.2817H0.383057L0.383057 46.591ZM14.0061 46.6892C14.2253 46.6934 14.4446 46.6764 14.6595 46.6379C14.8788 46.5995 15.0894 46.544 15.2958 46.4629C15.5021 46.386 15.6956 46.2878 15.8847 46.1726C16.0696 46.053 16.2415 45.9207 16.4006 45.767L17.5913 47.0435C16.8047 47.8462 15.717 48.4396 14.0233 48.4396C11.1259 48.4396 9.25158 46.5269 9.25158 43.9439C9.23868 43.3505 9.34615 42.7613 9.56969 42.2148C9.78894 41.6641 10.1242 41.1646 10.5455 40.7462C10.9625 40.3235 11.4655 39.9947 12.02 39.7685C12.5703 39.5465 13.1635 39.4355 13.7611 39.4483C16.6413 39.4483 18.2749 41.6214 18.1287 44.6399H11.3236C11.5644 45.8951 12.4542 46.6934 14.0018 46.6934L14.0061 46.6892ZM16.0782 43.2011C15.8933 42.0313 15.1883 41.1688 13.7826 41.1688C12.4757 41.1688 11.5601 41.9032 11.3279 43.2011C11.3279 43.2011 16.0824 43.2011 16.0782 43.2011ZM29.4476 43.9439C29.4476 41.1859 31.5282 39.4525 33.8152 39.4525C34.0903 39.4483 34.3655 39.4739 34.632 39.5294C34.8985 39.5849 35.1607 39.6703 35.4101 39.7813C35.6594 39.8923 35.9001 40.0289 36.1194 40.1911C36.3386 40.3534 36.5364 40.5412 36.7169 40.7462V35.6528H38.5697V48.2603H36.7169V47.0734C36.5407 47.2869 36.3429 47.479 36.1237 47.6498C35.9044 47.8206 35.668 47.9657 35.4144 48.0853C35.165 48.2005 34.8985 48.2902 34.6277 48.35C34.3568 48.4097 34.0774 48.4396 33.798 48.4354C31.5798 48.4354 29.4519 46.6892 29.4519 43.9439H29.4476ZM36.8201 43.9269C36.79 42.8254 36.0979 41.8477 35.0619 41.4463C34.0301 41.045 32.8523 41.3012 32.0785 42.091C31.3047 42.8809 31.0811 44.0549 31.5153 45.0711C31.9452 46.0829 32.9468 46.7447 34.0602 46.7447C35.6508 46.7447 36.8158 45.4852 36.8201 43.9269ZM50.4173 46.4245C50.4202 46.4245 50.4216 46.4245 50.4216 46.4245L50.4173 46.4287V46.4245ZM52.0939 45.5663C52.2014 45.7627 52.3389 45.942 52.498 46.1C52.6571 46.258 52.8376 46.3946 53.0353 46.5056C53.2288 46.6166 53.4394 46.6977 53.6587 46.7532C53.8779 46.8087 54.1015 46.8343 54.3293 46.8258C55.3782 46.8258 55.9199 46.2921 55.9199 45.6859C55.9199 44.9942 54.9096 44.8405 53.8048 44.6142C52.326 44.3026 50.7827 43.8201 50.7827 42.0441C50.7827 40.6779 52.0939 39.4141 54.153 39.4312C55.778 39.4312 56.986 40.0716 57.6695 41.1048L56.1133 41.9501C56.0059 41.7922 55.8812 41.6513 55.7393 41.5232C55.5932 41.3994 55.4341 41.2926 55.2664 41.2073C55.0945 41.1219 54.9139 41.0578 54.7291 41.0151C54.5399 40.9767 54.3508 40.9596 54.1573 40.9639C53.1643 40.9639 52.657 41.4506 52.657 42.0014C52.657 42.6247 53.4566 42.7955 54.7162 43.073C56.152 43.3847 57.7727 43.85 57.7727 45.6474C57.7727 46.8386 56.7238 48.4439 54.2433 48.4268C52.4292 48.4268 51.1567 47.701 50.4216 46.4287L52.0939 45.5663ZM62.798 44.4264L61.3321 46.0146V48.256H59.4793V35.6485H61.3321V43.9055L65.2613 39.6233H67.5182L64.1092 43.3206L67.6041 48.2603H65.5106L62.8023 44.4264H62.798ZM23.8462 39.4525C23.8433 39.4525 23.8419 39.4525 23.8419 39.4525H23.8462ZM23.8419 39.4525C26.0343 39.4525 27.8828 40.87 27.8828 43.2181V48.2646H26.0085V43.453C26.0085 42.0355 25.3121 41.1902 23.9107 41.1902C22.5092 41.1902 21.6881 42.0398 21.6881 43.453V48.2646H19.801V43.2181C19.801 40.87 21.6409 39.4525 23.8419 39.4525Z" fill="#03363D"/>
</g>
<defs>
<clipPath id="clip0_44_2474">
<rect width="67.234" height="47.6892" fill="white" transform="translate(0.383057 0.744812)"/>
</clipPath>
</defs>
</svg>
